<svg xmlns="http://www.w3.org/2000/svg" data-name="Layer 1" viewBox="0 0 512 512"><path d="M403.5,0h-295A37.54227,37.54227,0,0,0,71,37.5v1H55.5a22.5,22.5,0,0,0,0,45H71v85H55.5a22.5,22.5,0,0,0,0,45H71v85H55.5a22.5,22.5,0,0,0,0,45H71v85H55.5a22.5,22.5,0,0,0,0,45H71v1A37.54227,37.54227,0,0,0,108.5,512h295A37.54227,37.54227,0,0,0,441,474.5V37.5A37.54227,37.54227,0,0,0,403.5,0ZM55.5,68.5a7.5,7.5,0,0,1,0-15h39a7.5,7.5,0,0,1,0,15Zm0,130a7.5,7.5,0,0,1,0-15h39a7.5,7.5,0,0,1,0,15Zm0,130a7.5,7.5,0,0,1,0-15h39a7.5,7.5,0,0,1,0,15Zm0,130a7.5,7.5,0,0,1,0-15h39a7.5,7.5,0,0,1,0,15Zm370.5,16A22.52554,22.52554,0,0,1,403.5,497h-295A22.52554,22.52554,0,0,1,86,474.5v-1h8.5a22.5,22.5,0,0,0,0-45H86v-85h8.5a22.5,22.5,0,0,0,0-45H86v-85h8.5a22.5,22.5,0,0,0,0-45H86v-85h8.5a22.5,22.5,0,0,0,0-45H86v-1A22.52554,22.52554,0,0,1,108.5,15h295A22.52554,22.52554,0,0,1,426,37.5ZM319.12793,283.98145l-27.9295-14.88685c.08984-1.01794.15167-2.03894.15167-3.06433V252.05066A61.30866,61.30866,0,0,0,317.355,201.9502V183.27441a61.355,61.355,0,0,0-122.71,0v10.697c-.00012.01953-.00012.03906,0,.05847v7.92029a61.33806,61.33806,0,0,0,26.96484,50.78369v13.29638c0,.86011.0423,1.71827.10566,2.57471l-28.843,15.37549A63.38767,63.38767,0,0,0,159.29,339.92969a50.2067,50.2067,0,0,0,50.1499,50.15039h93.12012A50.14293,50.14293,0,0,0,352.71,339.92969,63.26625,63.26625,0,0,0,319.12793,283.98145ZM209.645,183.27441a46.35423,46.35423,0,0,1,92.70843-.05981,69.57142,69.57142,0,0,1-37.79827,1.19458,68.79438,68.79438,0,0,1-27.25879-14.168,7.5,7.5,0,0,0-12.11182,3.83691A16.65265,16.65265,0,0,1,209.645,186.93091Zm0,18.67579v-.0066a32.55464,32.55464,0,0,0,20.4956-8.12329,31.19375,31.19375,0,0,0,5.30469-6.23242A82.46067,82.46067,0,0,0,302.355,198.79517v3.155a46.355,46.355,0,0,1-92.71,0ZM276.3501,259.821v6.20923a19.87012,19.87012,0,1,1-39.74024,0v-5.88366a61.14381,61.14381,0,0,0,39.74024-.32557ZM327.417,364.78613a34.91969,34.91969,0,0,1-24.85693,10.29395H209.43994A35.19,35.19,0,0,1,174.29,339.92969a48.38724,48.38724,0,0,1,25.63818-42.71192l26.21759-13.97631a34.87519,34.87519,0,0,0,60.43494.38891l25.49347,13.58838A48.29787,48.29787,0,0,1,337.71,339.92969,34.9183,34.9183,0,0,1,327.417,364.78613Z"/></svg>