<svg xmlns="http://www.w3.org/2000/svg" width="72" height="72"><path d="M27.869 68.25a2 2 0 0 1-2-2.052l.195-7.447h-5.015c-3.822 0-6.551-3.15-6.551-7.021V25.593c0-3.773 2.729-6.843 6.551-6.843h40.137c3.822 0 7.313 3.069 7.313 6.843v26.136c0 3.871-3.49 7.021-7.313 7.021H41.762l-12.728 9.125a1.993 1.993 0 0 1-1.165.375zm-6.818-45.5c-1.644 0-2.551 1.249-2.551 2.843v26.136c0 1.639.962 3.021 2.551 3.021h7.068a1.997 1.997 0 0 1 1.999 2.053l-.144 5.477 9.979-7.154c.34-.244.747-.375 1.165-.375h20.068c1.589 0 3.313-1.383 3.313-3.021V25.593c0-1.594-1.669-2.843-3.313-2.843H21.051z"/><path d="M6.68 42.151c-.472 0-.754-.166-1.135-.504C4.082 40.352 3.5 38.651 3.5 36.729V10.593c0-3.773 2.729-6.843 6.551-6.843h40.137c3.822 0 7.313 3.069 7.313 6.843v1.157a2 2 0 0 1-4 0v-1.157c0-1.594-1.669-2.843-3.313-2.843H10.051C8.407 7.75 7.5 8.999 7.5 10.593v26.136c0 .766.1 1.395.697 1.924.827.732.809 1.998.076 2.824-.396.445-1.041.674-1.593.674z"/><path d="M34.119 31.75h-8a1 1 0 1 1 0-2h8a1 1 0 1 1 0 2zM48.119 31.75h-10a1 1 0 1 1 0-2h10a1 1 0 1 1 0 2zM56.119 31.75h-4a1 1 0 1 1 0-2h4a1 1 0 1 1 0 2zM30.119 36.75h-4a1 1 0 1 1 0-2h4a1 1 0 1 1 0 2zM42.119 36.75h-8a1 1 0 1 1 0-2h8a1 1 0 1 1 0 2zM56.119 36.75h-10a1 1 0 1 1 0-2h10a1 1 0 1 1 0 2zM36.119 42.75h-10a1 1 0 1 1 0-2h10a1 1 0 1 1 0 2zM50.119 42.75h-10a1 1 0 1 1 0-2h10a1 1 0 1 1 0 2zM56.119 42.75h-2a1 1 0 1 1 0-2h2a1 1 0 1 1 0 2zM30.119 47.75h-4a1 1 0 1 1 0-2h4a1 1 0 1 1 0 2zM41.119 47.75h-7a1 1 0 1 1 0-2h7a1 1 0 1 1 0 2z"/></svg>