<svg xmlns="http://www.w3.org/2000/svg" viewBox="0 0 32 32"><circle cx="20.5" cy="15.502" r="1"/><path d="M11.985 19.002a.5.5 0 0 0-.5-.5h-3.47v-1.5a.5.5 0 0 0-1 0v2a.5.5 0 0 0 .5.5h3.971a.5.5 0 0 0 .499-.5zm.515 8.5h7a.5.5 0 0 0 0-1h-7a.5.5 0 0 0 0 1z"/><path d="M2 22.002c0 1.208.86 2.217 2 2.449v6.551a.5.5 0 0 0 .5.5h23a.5.5 0 0 0 .5-.5v-6.551c1.14-.232 2-1.242 2-2.449v-1a.5.5 0 0 0-.5-.5h-4.012c.317-.419.512-.935.512-1.5v-7a.5.5 0 0 0-.5-.5h-10a.5.5 0 0 0-.5.5v.497l-.817-.908c-.05-.054-.118-.075-.183-.103v-1.032a3.821 3.821 0 0 0 1.335-2.889V6.205l.584-2.701a2.023 2.023 0 0 0-.339-1.537 2.022 2.022 0 0 0-1.331-.837L10.624.526a1.99 1.99 0 0 0-1.627.449c-.343.29-.574.683-.665 1.132a1.724 1.724 0 0 0-.899.585c-.332.412-.46.944-.343 1.489l.555 2.028v1.358c0 1.166.533 2.2 1.355 2.906v1.005c-.072.028-.146.053-.2.113l-.948 1.054-2.537 1.524A2.718 2.718 0 0 0 4 16.491v3.511c0 .176.036.343.092.5H2.5a.5.5 0 0 0-.5.5v1zm25 8.5H5v-6h22v6zm-12.914-11h10.828c-.206.582-.762 1-1.414 1h-8a1.502 1.502 0 0 1-1.414-1zm1.914-7h9v6h-9v-6zm-2.312.036.461.512-.858 1.072-.945-.944 1.342-.64zM8.211 3.321a.74.74 0 0 1 .577-.275c.276 0 .5-.265.5-.541a1.01 1.01 0 0 1 1.006-1.007c.055 0 .109.005.165.014l3.625.604c.275.046.517.197.678.426.161.229.222.507.176.767l-.369 1.706-.273-.339v-.593a.5.5 0 0 0-.5-.5H9.184a.5.5 0 0 0-.5.5v.593l-.315.391-.307-1.123a.738.738 0 0 1 .149-.623zm.434 4.245V6.322l.929-1.157a.502.502 0 0 0 .11-.313v-.269h3.612v.269a.5.5 0 0 0 .11.313l.929 1.154v1.248a2.849 2.849 0 0 1-2.846 2.846 2.85 2.85 0 0 1-2.844-2.847zm2.844 3.846c.536 0 1.047-.112 1.511-.311v.657l-1.509.719-1.491-.71v-.655c.458.193.961.3 1.489.3zm-2.195 1.126 1.343.64-.945.944-.859-1.072.461-.512zM5 20.002V18.5l-.001-2.01c0-.597.317-1.158.83-1.465l2.232-1.34 1.199 1.498a.502.502 0 0 0 .363.187l.027.001c.132 0 .26-.053.354-.146l1.487-1.487 1.487 1.487a.501.501 0 0 0 .354.146l.027-.001a.496.496 0 0 0 .363-.187l1.199-1.499.079.047v4.771h-1.5a.5.5 0 0 0-.5.5c0 .565.195 1.081.512 1.5H5.5a.501.501 0 0 1-.5-.5zm-2 1.5h26v.5c0 .827-.673 1.5-1.5 1.5h-23c-.827 0-1.5-.673-1.5-1.5v-.5zM21.5 4.5h6a.5.5 0 0 0 0-1h-6a.5.5 0 0 0 0 1zm6 2a.5.5 0 0 0 0-1h-6a.5.5 0 0 0 0 1h6z"/><path d="M21.264 10.44a.496.496 0 0 0 .513-.024L24.651 8.5H28.5c.827 0 1.5-.673 1.5-1.5V3c0-.827-.673-1.5-1.5-1.5h-8c-.827 0-1.5.673-1.5 1.5v4c0 .827.673 1.5 1.5 1.5h.5V10c0 .185.102.354.264.44zM20.5 7.5A.501.501 0 0 1 20 7V3c0-.275.225-.5.5-.5h8c.275 0 .5.225.5.5v4c0 .275-.225.5-.5.5h-4a.496.496 0 0 0-.277.084L22 9.065V8a.5.5 0 0 0-.5-.5h-1z"/></svg>